<svg width="41" height="40" viewBox="0 0 41 40" fill="none" xmlns="http://www.w3.org/2000/svg">
<path d="M20.012 5C28.2962 5 35.012 11.7157 35.012 20C35.012 28.2843 28.2962 35 20.012 35C11.7277 35 5.01196 28.2843 5.01196 20C5.01197 11.7157 11.7277 5 20.012 5Z" fill="#ECECEC"/>
<path d="M20.012 5C28.2962 5 35.012 11.7157 35.012 20C35.012 28.2843 28.2962 35 20.012 35C11.7277 35 5.01196 28.2843 5.01196 20C5.01197 11.7157 11.7277 5 20.012 5Z" stroke="black"/>
<path d="M19.012 15L24.012 20L19.012 25" stroke="black"/>
</svg>
