<svg width="41" height="40" viewBox="0 0 41 40" fill="none" xmlns="http://www.w3.org/2000/svg">
<path d="M20.3994 35C12.1151 35 5.39935 28.2843 5.39935 20C5.39935 11.7157 12.1151 5 20.3994 5C28.6836 5 35.3994 11.7157 35.3994 20C35.3994 28.2843 28.6836 35 20.3994 35Z" fill="#ECECEC"/>
<path d="M20.3994 35C12.1151 35 5.39935 28.2843 5.39935 20C5.39935 11.7157 12.1151 5 20.3994 5C28.6836 5 35.3994 11.7157 35.3994 20C35.3994 28.2843 28.6836 35 20.3994 35Z" stroke="black"/>
<path d="M21.3994 25L16.3993 20L21.3994 15" stroke="black"/>
</svg>
