<svg width="59" height="59" viewBox="0 0 59 59" fill="none" xmlns="http://www.w3.org/2000/svg">
<path d="M29.5 4.5C43.3071 4.5 54.5 15.6929 54.5 29.5C54.5 43.3071 43.3071 54.5 29.5 54.5C15.6929 54.5 4.5 43.3071 4.5 29.5C4.5 15.6929 15.6929 4.5 29.5 4.5Z" fill="#ECECEC"/>
<path d="M29.5 4.5C43.3071 4.5 54.5 15.6929 54.5 29.5C54.5 43.3071 43.3071 54.5 29.5 54.5C15.6929 54.5 4.5 43.3071 4.5 29.5C4.5 15.6929 15.6929 4.5 29.5 4.5Z" stroke="black"/>
<path d="M27.8333 21.1667L36.1667 29.5L27.8333 37.8333" stroke="black"/>
</svg>
