<svg width="30" height="29" viewBox="0 0 30 29" fill="none" xmlns="http://www.w3.org/2000/svg">
<rect width="9.15446" height="2.28862" transform="matrix(-0.718931 0.695081 0.718931 0.695081 6.5813 21.0461)" fill="white"/>
<path fill-rule="evenodd" clip-rule="evenodd" d="M16.1246 24.174C10.0376 24.174 5.32763 19.2725 5.32763 13.5103C5.32763 7.74817 10.0376 2.84669 16.1246 2.84669C22.2115 2.84669 26.9215 7.74817 26.9215 13.5103C26.9215 19.2725 22.2115 24.174 16.1246 24.174ZM16.1246 26.8399C8.76285 26.8399 2.79502 20.872 2.79502 13.5103C2.79502 6.14863 8.76285 0.180786 16.1246 0.180786C23.4863 0.180786 29.4541 6.14863 29.4541 13.5103C29.4541 20.872 23.4863 26.8399 16.1246 26.8399Z" fill="white"/>
</svg>
